<svg xmlns="http://www.w3.org/2000/svg" xmlns:xlink="http://www.w3.org/1999/xlink" width="1024" height="1600" preserveAspectRatio="xMidYMid meet" version="1.0" viewBox="0 0 768 1199.999942" zoomAndPan="magnify">
    <defs>
        <clipPath id="980ba2a3c2">
            <path d="M 514.546875 156.070312 L 768 156.070312 L 768 696.140625 L 514.546875 696.140625 Z M 514.546875 156.070312 " clip-rule="nonzero"/>
        </clipPath>
        <clipPath id="4f736e6b1d">
            <path d="M 784.582031 156.070312 C 635.445312 156.070312 514.546875 276.96875 514.546875 426.105469 C 514.546875 575.242188 635.445312 696.140625 784.582031 696.140625 C 933.71875 696.140625 1054.617188 575.242188 1054.617188 426.105469 C 1054.617188 276.96875 933.71875 156.070312 784.582031 156.070312 " clip-rule="nonzero"/>
        </clipPath>
        <clipPath id="4385b094f7">
            <path d="M 201 633.738281 L 403.5 633.738281 L 403.5 836.238281 L 201 836.238281 Z M 201 633.738281 " clip-rule="nonzero"/>
        </clipPath>
        <clipPath id="9686917924">
            <path d="M 302.25 633.738281 C 246.332031 633.738281 201 679.070312 201 734.988281 C 201 790.910156 246.332031 836.238281 302.25 836.238281 C 358.167969 836.238281 403.5 790.910156 403.5 734.988281 C 403.5 679.070312 358.167969 633.738281 302.25 633.738281 " clip-rule="nonzero"/>
        </clipPath>
        <clipPath id="ac4fe0c562">
            <path d="M 123.003906 931.433594 L 201 931.433594 L 201 1009.433594 L 123.003906 1009.433594 Z M 123.003906 931.433594 " clip-rule="nonzero"/>
        </clipPath>
        <clipPath id="93f6a5e2d4">
            <path d="M 162 931.433594 C 140.460938 931.433594 123.003906 948.894531 123.003906 970.433594 C 123.003906 991.972656 140.460938 1009.433594 162 1009.433594 C 183.539062 1009.433594 201 991.972656 201 970.433594 C 201 948.894531 183.539062 931.433594 162 931.433594 " clip-rule="nonzero"/>
        </clipPath>
        <clipPath id="1ab5a88522">
            <path d="M 460.800781 836.238281 L 691.199219 836.238281 L 691.199219 1066.640625 L 460.800781 1066.640625 Z M 460.800781 836.238281 " clip-rule="nonzero"/>
        </clipPath>
        <clipPath id="feb4d08f08">
            <path d="M 576 836.238281 C 512.375 836.238281 460.800781 887.816406 460.800781 951.441406 C 460.800781 1015.0625 512.375 1066.640625 576 1066.640625 C 639.625 1066.640625 691.199219 1015.0625 691.199219 951.441406 C 691.199219 887.816406 639.625 836.238281 576 836.238281 " clip-rule="nonzero"/>
        </clipPath>
        <clipPath id="fc80a57bb7">
            <path d="M 0 135.414062 L 49.839844 135.414062 L 49.839844 213.410156 L 0 213.410156 Z M 0 135.414062 " clip-rule="nonzero"/>
        </clipPath>
        <clipPath id="d457244425">
            <path d="M 10.839844 135.414062 C -10.699219 135.414062 -28.160156 152.875 -28.160156 174.414062 C -28.160156 195.949219 -10.699219 213.410156 10.839844 213.410156 C 32.378906 213.410156 49.839844 195.949219 49.839844 174.414062 C 49.839844 152.875 32.378906 135.414062 10.839844 135.414062 " clip-rule="nonzero"/>
        </clipPath>
    </defs>
    <g clip-path="url(#980ba2a3c2)">
        <g clip-path="url(#4f736e6b1d)">
            <path fill="#082537" fill-opacity="0.5" fill-rule="nonzero" d="M 514.546875 156.070312 L 1054.617188 156.070312 L 1054.617188 696.140625 L 514.546875 696.140625 Z M 514.546875 156.070312 "/>
        </g>
    </g>
    <g clip-path="url(#4385b094f7)">
        <g clip-path="url(#9686917924)">
            <path fill="#082537" fill-opacity="0.5" fill-rule="nonzero" d="M 201 633.738281 L 403.5 633.738281 L 403.5 836.238281 L 201 836.238281 Z M 201 633.738281 "/>
        </g>
    </g>
    <g clip-path="url(#ac4fe0c562)">
        <g clip-path="url(#93f6a5e2d4)">
            <path fill="#082537" fill-opacity="0.5" fill-rule="nonzero" d="M 123.003906 931.433594 L 201 931.433594 L 201 1009.433594 L 123.003906 1009.433594 Z M 123.003906 931.433594 "/>
        </g>
    </g>
    <g clip-path="url(#1ab5a88522)">
        <g clip-path="url(#feb4d08f08)">
            <path fill="#082537" fill-opacity="0.5" fill-rule="nonzero" d="M 460.800781 836.238281 L 691.199219 836.238281 L 691.199219 1066.640625 L 460.800781 1066.640625 Z M 460.800781 836.238281 "/>
        </g>
    </g>
    <g clip-path="url(#fc80a57bb7)">
        <g clip-path="url(#d457244425)">
            <path fill="#082537" fill-opacity="0.5" fill-rule="nonzero" d="M -28.160156 135.414062 L 49.839844 135.414062 L 49.839844 213.410156 L -28.160156 213.410156 Z M -28.160156 135.414062 "/>
        </g>
    </g>
</svg>
